# xmcd
#
# Track frame offsets: 
#        150
#        23649
#        35751
#        51871
#        75646
#        103009
#        115797
#        128531
#        158494
#        172967
#        183542
#        197917
#
# Disc length: 3221 seconds
#
# Revision: 0
# Processed by: cddbd v1.5.2PL0 Copyright (c) Steve Scherf et al.
# Submitted via: ExactAudioCopy v0.95b4
#
DISCID=920c930c
DTITLE=Dooley Wilson - Asshole's Last Chance
DYEAR=2004
DGENRE=Blues
TTITLE0=Goin' Back To Memphis
TTITLE1=Cocaine Habit Blues
TTITLE2=Terraplane Blues
TTITLE3=She Moves Me
TTITLE4=Dimples
TTITLE5=Shake It And Break It
TTITLE6=Hesitation Blues
TTITLE7=Little Girl
TTITLE8=Dead Shrimp
TTITLE9=Back To Tennessee
TTITLE10=Peckerwood's Lament
TTITLE11=Still A Fool
EXTD=
EXTT0=
EXTT1=
EXTT2=
EXTT3=
EXTT4=
EXTT5=
EXTT6=
EXTT7=
EXTT8=
EXTT9=
EXTT10=
EXTT11=
PLAYORDER=
